<svg width="27" height="46" viewBox="0 0 27 46" fill="none" xmlns="http://www.w3.org/2000/svg">
<g id="icon-favorite_outline" clip-path="url(#clip0_1_698)">
<path id="Vector" d="M23.1079 15.0887C22.5511 14.5015 21.884 14.0298 21.1448 13.7004C20.4057 13.3711 19.6089 13.1906 18.7999 13.1692C17.991 13.1479 17.1858 13.2861 16.4302 13.576C15.6747 13.866 14.9837 14.3019 14.3967 14.8589L14.1669 15.0887C13.7459 15.5309 13.389 16.03 13.1067 16.5715C12.8245 16.03 12.4676 15.5309 12.0466 15.0887C11.4895 14.4993 10.8216 14.0257 10.0811 13.695C9.34054 13.3644 8.54202 13.1832 7.73131 13.1618C6.92061 13.1405 6.11366 13.2794 5.35676 13.5706C4.59986 13.8618 3.90791 14.2996 3.3206 14.8589L3.09078 15.0887C1.90126 16.3411 1.23804 18.0024 1.23804 19.7297C1.23804 21.457 1.90126 23.1183 3.09078 24.3707L10.3637 31.9179C11.0513 32.643 11.9979 33.0664 12.9968 33.0955C13.9956 33.1247 14.9654 32.7573 15.6941 32.0736L15.8128 31.9476L23.1079 24.3707C24.3357 23.1382 25.025 21.4694 25.025 19.7297C25.025 17.99 24.3357 16.3212 23.1079 15.0887Z" stroke="#6504B5" stroke-width="2.22412" stroke-miterlimit="10"/>
</g>
<defs>
<clipPath id="clip0_1_698">
<rect width="26" height="45" fill="white" transform="translate(0.125244 0.628906)"/>
</clipPath>
</defs>
</svg>
