<svg width="45" height="15" viewBox="0 0 45 15" fill="none" xmlns="http://www.w3.org/2000/svg">
<g id="icon-chevronRight" clip-path="url(#clip0_1_475)">
<path id="Vector" d="M26.5716 8.81229C26.9322 8.44269 27.134 7.94681 27.134 7.43049C27.134 6.91416 26.9322 6.41828 26.5716 6.04868L21.4993 0.976384C21.122 0.633371 20.627 0.448796 20.1172 0.460949C19.6074 0.473101 19.1218 0.681048 18.7612 1.04165C18.4006 1.40225 18.1926 1.88783 18.1805 2.39766C18.1683 2.90748 18.3529 3.40242 18.6959 3.7798L22.3352 7.43049L18.6959 11.0698C18.3234 11.4423 18.1141 11.9475 18.1141 12.4744C18.1141 13.0012 18.3234 13.5064 18.6959 13.8789C19.0684 14.2514 19.5737 14.4607 20.1005 14.4607C20.6273 14.4607 21.1325 14.2514 21.505 13.8789L26.5489 8.84072L26.5716 8.81229Z" fill="#4D4751"/>
</g>
<defs>
<clipPath id="clip0_1_475">
<rect width="44" height="14" fill="white" transform="translate(0.625244 0.45892)"/>
</clipPath>
</defs>
</svg>
