<svg width="27" height="23" viewBox="0 0 27 23" fill="none" xmlns="http://www.w3.org/2000/svg">
<g id="icon-favorite_outline" clip-path="url(#clip0_1_519)">
<path id="Vector" d="M23.4825 3.72129C22.9293 3.13794 22.2666 2.66928 21.5323 2.34209C20.7979 2.01489 20.0063 1.83557 19.2027 1.81437C18.399 1.79317 17.5991 1.9305 16.8485 2.21852C16.0979 2.50653 15.4115 2.9396 14.8283 3.49297L14.6 3.72129C14.1817 4.16061 13.8272 4.65646 13.5467 5.19434C13.2663 4.65646 12.9118 4.16061 12.4935 3.72129C11.9401 3.13575 11.2765 2.66523 10.5409 2.33673C9.80518 2.00823 9.01189 1.82821 8.20648 1.80699C7.40107 1.78578 6.5994 1.92379 5.84746 2.21311C5.09551 2.50243 4.40809 2.93737 3.82462 3.49297L3.5963 3.72129C2.41456 4.9655 1.75568 6.61597 1.75568 8.33194C1.75568 10.0479 2.41456 11.6984 3.5963 12.9426L10.8216 20.4404C11.5047 21.1607 12.4452 21.5814 13.4375 21.6103C14.4298 21.6393 15.3932 21.2743 16.1172 20.5951L16.2351 20.4699L23.4825 12.9426C24.7022 11.7181 25.3871 10.0603 25.3871 8.33194C25.3871 6.60363 24.7022 4.94574 23.4825 3.72129Z" stroke="white" stroke-width="2.20957" stroke-miterlimit="10"/>
</g>
<defs>
<clipPath id="clip0_1_519">
<rect width="26" height="22" fill="white" transform="translate(0.565186 0.708923)"/>
</clipPath>
</defs>
</svg>
