<svg width="23" height="23" viewBox="0 0 23 23" fill="none" xmlns="http://www.w3.org/2000/svg">
<g id="icon-pinterest" clip-path="url(#clip0_1_875)">
<path id="Vector" d="M13.3226 16.72C12.7178 16.7364 12.1185 16.6012 11.5794 16.3265C11.0404 16.0518 10.5787 15.6465 10.2365 15.1475C10.2365 15.1475 9.50167 18.0867 9.34736 18.6231C8.83735 20.1254 8.06623 21.5258 7.06947 22.7601C7.04957 22.7863 7.02243 22.8062 6.99138 22.8172C6.96034 22.8283 6.92674 22.83 6.89473 22.8222C6.86272 22.8144 6.83368 22.7974 6.8112 22.7733C6.78873 22.7492 6.77378 22.7191 6.76821 22.6866C6.49911 21.0956 6.50408 19.4703 6.7829 17.881L8.40682 10.9959C8.13177 10.3659 7.994 9.68456 8.00267 8.9972C8.00267 7.12346 9.09018 5.72733 10.4422 5.72733C10.6838 5.72343 10.9234 5.77138 11.1449 5.86794C11.3664 5.96451 11.5646 6.10745 11.7262 6.28711C11.8878 6.46678 12.0089 6.67901 12.0815 6.90948C12.1541 7.13994 12.1764 7.3833 12.147 7.62312C12.147 8.77676 11.4122 10.5109 11.0301 12.1054C10.955 12.4018 10.9505 12.7116 11.0169 13.01C11.0833 13.3084 11.2188 13.5871 11.4124 13.8236C11.6061 14.0602 11.8525 14.248 12.132 14.372C12.4114 14.496 12.716 14.5527 13.0214 14.5376C15.4168 14.5376 17.0261 11.4661 17.0261 7.82152C17.0261 5.05131 15.1597 2.97917 11.7649 2.97917C10.9533 2.94722 10.1436 3.0807 9.38526 3.3715C8.62687 3.66229 7.93556 4.10431 7.35338 4.67069C6.7712 5.23706 6.31031 5.91594 5.99876 6.66604C5.6872 7.41614 5.53149 8.22177 5.54108 9.03395C5.50522 9.93321 5.80068 10.8144 6.37141 11.5102C6.47932 11.5949 6.55596 11.7131 6.58922 11.8461C6.62249 11.9792 6.61048 12.1196 6.55511 12.245C6.49633 12.4728 6.35672 13.0386 6.29793 13.2591C6.28728 13.3274 6.26044 13.3922 6.21965 13.448C6.17886 13.5038 6.1253 13.5491 6.06346 13.58C6.00161 13.611 5.93326 13.6266 5.86412 13.6258C5.79498 13.6249 5.72705 13.6075 5.666 13.575C3.93187 12.8182 3.10889 10.8856 3.10889 8.71063C3.10889 5.12479 6.13627 0.818848 12.1396 0.818848C16.9673 0.818848 20.1416 4.30916 20.1416 8.05666C20.1416 13.0166 17.3861 16.72 13.3226 16.72Z" fill="white"/>
</g>
<defs>
<clipPath id="clip0_1_875">
<rect width="22" height="22" fill="white" transform="translate(0.625244 0.818848)"/>
</clipPath>
</defs>
</svg>
