<svg width="15" height="10" viewBox="0 0 15 10" fill="none" xmlns="http://www.w3.org/2000/svg">
<g clip-path="url(#clip0_1_754)">
<path d="M5.762 8.60467C6.13603 8.95758 6.63082 9.15416 7.14506 9.15416C7.65931 9.15416 8.1541 8.95758 8.52813 8.60467L13.5523 3.58047C13.7401 3.39651 13.8892 3.17693 13.9911 2.93459C14.0929 2.69226 14.1454 2.43204 14.1454 2.16918C14.1454 1.90632 14.0929 1.6461 13.9911 1.40377C13.8892 1.16143 13.7401 0.941855 13.5523 0.757892C13.3684 0.570134 13.1488 0.420973 12.9064 0.319143C12.6641 0.217313 12.4039 0.164862 12.141 0.164862C11.8782 0.164862 11.618 0.217313 11.3756 0.319143C11.1333 0.420973 10.9137 0.570134 10.7297 0.757892L7.11684 4.37079L3.56039 0.757892C3.37642 0.570134 3.15684 0.420973 2.91451 0.319143C2.67217 0.217313 2.41196 0.164862 2.1491 0.164862C1.88624 0.164862 1.62602 0.217313 1.38368 0.319143C1.14135 0.420973 0.921769 0.570134 0.737805 0.757892C0.550048 0.941855 0.400886 1.16143 0.299056 1.40377C0.197226 1.6461 0.144775 1.90632 0.144775 2.16918C0.144775 2.43204 0.197226 2.69226 0.299056 2.93459C0.400886 3.17693 0.550048 3.39651 0.737805 3.58047L5.762 8.60467Z" fill="#4D4751"/>
</g>
<defs>
<clipPath id="clip0_1_754">
<rect width="14" height="8.9871" fill="white" transform="translate(0.145264 0.165372)"/>
</clipPath>
</defs>
</svg>
