<svg width="127" height="36" viewBox="0 0 127 36" fill="none" xmlns="http://www.w3.org/2000/svg">
<g id="logo-consumer-white" clip-path="url(#clip0_1_787)">
<g id="Group">
<path id="Vector" d="M97.464 16.5062C97.464 16.0096 97.4651 15.4933 97.4651 14.9609C97.4651 11.9328 97.7353 8.59973 97.7353 5.68937C97.7353 4.67883 96.98 3.63133 95.6877 3.63133C94.676 3.63133 93.6678 4.47094 93.6678 5.63393C93.6678 7.28314 93.7925 9.07439 93.8687 11.8566C93.1388 11.4131 92.0936 11.0504 90.4109 11.0504C85.2936 11.0504 82.538 15.0579 82.538 18.5469C82.538 19.688 82.7262 20.6731 83.0554 21.5139C82.5126 21.9851 81.8185 22.4066 80.9304 22.4066C80.0422 22.4066 79.1495 21.6652 79.1495 18.8888C79.1495 18.2651 79.2488 15.7925 79.2488 14.8882C79.2488 12.4733 77.5061 11.0423 74.9387 11.0423C72.3714 11.0423 70.8619 12.4121 69.8779 13.9908C69.9033 13.6247 69.9206 13.3013 69.9206 13.0322C69.9206 11.7284 68.8235 11.0423 67.8418 11.0423C66.9883 11.0423 65.8508 11.7157 65.8508 13.0738C65.8508 14.8039 65.9882 16.5686 66.0471 18.3113C66.0621 18.7375 66.0714 19.1625 66.0725 19.5886C66.0113 19.6591 65.9536 19.733 65.9039 19.8104C65.0262 21.1685 64.056 22.2461 62.065 22.2461C59.5981 22.2461 58.6661 20.8336 58.6661 18.5434C58.6661 17.4763 59.4745 16.7187 59.4745 15.5661C59.4745 15.2601 59.411 14.9505 59.2944 14.656C59.0917 14.8761 58.8638 15.0715 58.6153 15.2381C58.5772 15.2577 58.5414 15.2878 58.5056 15.3109C58.4686 15.3351 58.4305 15.3582 58.3924 15.3802C58.3508 15.4044 58.3058 15.4229 58.2631 15.446C58.188 15.4876 58.1129 15.5257 58.0355 15.5626C57.9628 15.5973 57.8912 15.6308 57.8173 15.662C57.778 15.6793 57.7399 15.7001 57.6995 15.7162C57.6475 15.737 57.5944 15.752 57.5412 15.7705C57.5008 15.7855 57.4615 15.8029 57.4211 15.8179C57.3091 15.856 57.1948 15.8918 57.077 15.9103C57.025 15.9184 56.9753 15.9207 56.9257 15.9207C56.876 15.9207 56.8263 15.9184 56.7744 15.9103C56.6566 15.8918 56.5422 15.856 56.4302 15.8179C56.3898 15.804 56.3505 15.7855 56.3101 15.7717C56.257 15.7532 56.2039 15.7382 56.1519 15.7174C56.1115 15.7012 56.0733 15.6804 56.0341 15.6631C55.9602 15.6319 55.8886 15.5984 55.8158 15.5638C55.7384 15.5268 55.6634 15.4887 55.5883 15.4472C55.5456 15.4241 55.5005 15.4056 55.4589 15.3813C55.4208 15.3594 55.3827 15.3351 55.3458 15.312C55.31 15.2889 55.2742 15.2577 55.236 15.2393C55.0201 15.0949 54.818 14.9274 54.6343 14.7427C54.5454 15.0025 54.4969 15.2808 54.4969 15.5696C54.4969 16.6656 55.3019 17.5156 55.3019 18.5261C55.3019 20.8163 54.2867 22.2461 51.8938 22.2461C49.9974 22.2461 48.9384 21.202 48.0676 19.8104C48.0087 19.7184 47.9419 19.6318 47.8678 19.5517L47.8724 19.5494C50.6603 16.8688 55.3492 11.7734 55.3492 7.37784C55.3492 3.9651 53.4887 1.59985 50.1949 1.59985C48.6173 1.59985 47.3377 2.04565 46.356 2.76862C45.3431 3.51468 44.6537 4.55987 44.2876 5.72402C44.0827 6.37541 43.9779 7.05415 43.9769 7.73701C43.9769 9.29613 44.045 10.8564 44.0854 12.4144C44.0889 12.5587 44.0947 12.7031 44.0982 12.8475C44.1224 14.0208 44.1363 15.1954 44.1467 16.3699C44.1501 16.669 44.1571 16.9682 44.1594 17.2673C44.1651 18.16 43.8926 18.2605 43.3394 18.95C42.8705 19.5332 42.1545 20.1418 41.7595 20.5391C41.2952 21.0057 40.9776 21.9446 41.2259 22.6849C41.4707 23.4114 42.658 23.9692 43.508 23.2959C43.6143 23.2116 43.7147 23.1088 43.7875 23.0383C43.9295 22.9009 44.0889 22.7692 44.2367 22.6445C44.4793 24.1413 44.2321 25.8875 44.1894 27.4062C44.1328 29.4284 43.9111 30.253 43.9111 32.2729C43.8291 33.5699 44.6306 34.823 46.1735 34.6786C47.2048 34.5816 47.8227 33.7916 47.8135 32.3769C47.8112 32.0547 47.8504 27.3658 47.8354 23.7024C48.9014 24.527 50.3069 25.1495 51.9942 25.1495C53.6815 25.1495 55.7061 24.6737 56.9869 22.708C58.3808 24.8735 60.671 25.1507 62.0049 25.1507C63.5259 25.1507 64.846 24.6171 65.8877 23.8791C66.0887 24.8331 66.9375 25.4821 67.9007 25.4821C68.9124 25.4821 69.9206 24.6633 69.9206 23.4691C69.9206 23.0891 69.7809 21.4307 69.7001 19.8993C69.7047 17.8101 71.8978 14.1456 73.8496 14.1456C74.8221 14.1456 75.4549 14.991 75.4549 16.1874C75.4549 17.1067 75.3464 18.9211 75.3464 20.1234C75.3464 22.961 76.0624 25.459 80.0699 25.459C81.9767 25.459 83.4642 24.5917 84.5152 23.6966C85.8167 24.9174 87.6092 25.4729 89.427 25.4729C91.8303 25.4729 93.4495 24.4196 94.4878 23.4472C94.4843 23.5927 94.482 23.7324 94.482 23.8606C94.482 24.8411 95.004 25.5422 95.9141 25.5422C96.7502 25.5422 97.8531 24.8665 97.8531 23.8791C97.8531 23.7209 97.7885 22.7831 97.7099 21.5358C97.6164 20.0344 97.5032 18.0861 97.464 16.512V16.5062ZM50.0863 4.84167C51.3163 4.84167 51.8164 6.0728 51.8164 7.37668C51.8164 10.5735 49.4731 13.6374 47.758 15.6042C47.7684 15.1954 47.7811 14.7623 47.7927 14.3188C47.8678 11.5759 47.9602 8.42649 47.9602 7.88138C47.9602 6.83388 48.3597 5.93536 48.8668 5.41912C49.2236 5.05648 49.6486 4.84167 50.0863 4.84167ZM93.9253 18.0584C93.9184 19.9986 92.4701 22.5348 89.8347 22.5348C88.212 22.5348 86.6113 21.2563 86.6113 18.5076C86.6113 15.401 88.7525 13.9966 90.6997 13.9966C92.1907 13.9966 93.1469 14.5613 93.9242 15.3894C93.9242 15.6204 93.9265 15.8548 93.9265 16.0974V18.0595L93.9253 18.0584ZM9.21082 10.5688C7.25326 10.5688 5.8027 11.2514 4.75751 12.0333C4.49188 11.0666 3.55872 10.5608 2.70756 10.5608C1.85639 10.5608 0.671461 11.2491 0.671461 12.6384C0.671461 13.8915 0.939399 17.3216 0.939399 21.865C0.939399 26.4083 0.659912 29.4273 0.659912 31.2012C0.659912 32.415 1.30666 33.2835 2.43384 33.2835C3.46979 33.2835 4.83489 32.4462 4.83489 31.2243C4.83489 30.7773 4.64664 27.9397 4.57735 24.3688C6.31317 25.1287 8.28228 25.5168 10.8508 25.0825C13.1317 24.6968 14.8641 22.5902 14.8641 22.5902C15.8654 21.2852 16.2604 19.3426 16.2604 17.6484C16.2604 12.6557 12.7806 10.5688 9.21197 10.5688H9.21082ZM7.9104 22.171C6.71854 22.171 5.4389 21.7622 4.5554 20.8371C4.56349 19.927 4.58081 19.0678 4.60391 18.272C4.60737 18.2397 4.60968 18.2039 4.60968 18.1635C4.60968 16.177 6.09258 13.5693 8.79505 13.5693C10.4558 13.5693 12.0923 14.8766 12.0923 17.69C12.0923 20.8694 9.90261 22.171 7.9104 22.171Z" fill="white"/>
<path id="Vector_2" d="M38.4622 16.9601C38.4622 16.542 38.4668 16.1136 38.4668 15.6793V15.5546C38.4668 14.9182 38.4784 14.2726 38.498 13.6271C39.8204 13.6467 40.7916 13.679 41.5261 13.679C41.7848 13.679 42.1452 13.5889 42.4593 13.3857C42.8266 13.1478 43.1315 12.7539 43.1315 12.1349C43.1315 11.2249 42.4928 10.5816 41.4869 10.5816C40.5595 10.5816 39.6448 10.6058 38.6204 10.6255C38.6655 9.67844 38.7082 8.76722 38.7371 7.90682C38.7555 7.34091 38.7694 6.79233 38.7694 6.28418C38.7694 5.19857 37.9217 4.19727 36.649 4.19727C35.8325 4.19727 34.6833 4.81629 34.6083 6.19178C34.606 6.23798 34.5944 6.2784 34.5944 6.32575C34.5944 6.65952 34.6695 8.05118 34.7411 9.65188C34.7503 9.9637 34.7584 10.2825 34.7642 10.6116C34.3311 10.5966 33.3448 10.5827 32.9394 10.5827C32.2881 10.5827 31.3226 10.9962 31.3226 12.1534C31.3226 13.1235 32.1911 13.679 32.9464 13.679C33.2686 13.679 34.2537 13.6605 34.7896 13.6421C34.785 14.7138 34.7653 15.6978 34.7388 16.5963C34.7145 16.9844 34.6891 17.3805 34.666 17.7662C34.6499 18.3252 34.6291 18.9662 34.6187 19.569C34.5609 20.7782 34.5101 22.4644 34.5101 23.2116C34.5101 24.4254 35.0275 25.2939 36.7067 25.25C37.9321 25.2177 38.6851 24.2961 38.6851 23.2347C38.6851 22.9494 38.61 20.978 38.5373 19.1798C38.5095 18.5077 38.483 17.7605 38.4599 16.959L38.4622 16.9601ZM64.0595 9.41397C64.0595 10.6227 63.0797 11.6025 61.8709 11.6025C60.6622 11.6025 59.6824 10.6227 59.6824 9.41397C59.6824 8.20524 60.6622 7.22542 61.8709 7.22542C63.0797 7.22542 64.0595 8.20524 64.0595 9.41397ZM30.9299 20.7043C30.3686 20.7043 29.6919 21.2194 29.6907 21.2194C29.171 21.6144 28.5924 21.9516 27.9664 22.1456C27.3208 22.3466 26.6672 22.3142 26.0008 22.3142C23.6956 22.3142 22.6527 21.4458 22.2 20.1834C27.5691 20.1407 30.2959 18.0145 30.2959 14.7889C30.2959 12.3047 28.1177 10.5458 25.0237 10.5458C21.0127 10.5458 17.682 13.5728 17.682 18.3633C17.682 19.1198 17.764 19.8173 17.9211 20.4572C17.9211 20.4572 18.2063 21.7264 18.9813 22.7173C20.2759 24.4012 22.5211 25.2974 25.6451 25.2974C27.3867 25.2974 29.2287 24.8608 30.7821 24.0732C31.3872 23.766 32.0952 23.4253 32.3135 22.7335C32.4729 22.2276 32.392 21.6305 32.0548 21.2125C31.7799 20.8718 31.3618 20.7066 30.9288 20.7066L30.9299 20.7043ZM24.9741 13.1997C26.3692 13.1997 26.8485 14.2992 26.8485 14.9748C26.8485 16.6067 25.786 17.6473 21.8743 17.7085C21.8859 14.208 23.8007 13.1997 24.9741 13.1997ZM123.531 10.6208C121.41 10.6208 119.772 12.1095 118.819 13.5578C118.845 13.1928 118.862 12.8717 118.862 12.6038C118.862 11.2999 117.765 10.6139 116.784 10.6139C115.931 10.6139 114.793 11.2872 114.793 12.6454C114.793 13.8696 115.055 15.7752 115.055 17.7489C115.055 18.0769 115.046 18.3899 115.035 18.6959C114.988 20.0356 114.919 20.8071 114.802 22.208C114.791 22.4736 114.783 22.7404 114.783 23.013C114.783 24.2002 115.741 25.0479 116.844 25.0479C117.857 25.0479 118.864 24.2291 118.864 23.0349C118.864 22.6526 118.723 20.9792 118.643 19.4397C118.661 16.9913 121.169 14.0174 122.408 14.0174C123.222 14.0174 123.042 15.1411 124.571 15.1411C125.585 15.1411 126.533 14.3269 126.533 13.1651C126.533 12.1626 125.854 10.6185 123.534 10.6185L123.531 10.6208ZM112.188 20.6165C111.626 20.6165 110.95 21.1316 110.949 21.1316C110.429 21.5266 109.85 21.8638 109.224 22.0579C108.579 22.2588 107.925 22.2265 107.259 22.2265C104.953 22.2265 103.911 21.358 103.458 20.0957C108.827 20.0529 111.554 17.9268 111.554 14.7011C111.554 12.2169 109.376 10.458 106.282 10.458C102.271 10.458 98.9399 13.485 98.9399 18.2744C98.9399 19.0308 99.0219 19.7284 99.1789 20.3682C99.1789 20.3682 99.4642 21.6375 100.239 22.6284C101.534 24.3122 103.779 25.2084 106.903 25.2084C108.645 25.2084 110.487 24.7719 112.04 23.9842C112.645 23.677 113.353 23.3363 113.571 22.6445C113.731 22.1387 113.65 21.5416 113.313 21.1235C113.038 20.7828 112.62 20.6177 112.187 20.6177L112.188 20.6165ZM106.232 13.112C107.627 13.112 108.106 14.2114 108.106 14.8871C108.106 16.5189 107.044 17.5595 103.132 17.6207C103.144 14.1202 105.059 13.112 106.232 13.112Z" fill="white"/>
</g>
<path id="Vector_3" d="M59.9099 14.3316C59.8556 14.1965 59.7874 14.066 59.7043 13.9459C59.4502 13.5763 59.0448 13.3523 58.6037 13.2818C58.502 13.2656 58.3969 13.2564 58.2895 13.2553C57.9696 13.2518 57.6393 13.3199 57.3725 13.4805C57.2825 13.5347 57.2005 13.5971 57.1254 13.6687C57.0503 13.7392 56.9833 13.8188 56.9244 13.9032C56.8066 13.7322 56.6539 13.5881 56.4763 13.4805C56.3874 13.4273 56.2916 13.3834 56.1911 13.35C55.9901 13.283 55.773 13.2529 55.5593 13.2553C55.4531 13.2564 55.3468 13.2656 55.2452 13.2818C54.804 13.3523 54.3998 13.5763 54.1446 13.9459C54.0614 14.066 53.9933 14.1965 53.939 14.3316C53.6572 15.0269 53.7762 15.8099 54.1989 16.4797C54.4622 16.8967 54.8248 17.242 55.2337 17.5145C55.2718 17.5342 55.3076 17.5642 55.3434 17.5873C55.3803 17.6115 55.4184 17.6346 55.4566 17.6566C55.4981 17.6808 55.5432 17.6993 55.5859 17.7224C55.661 17.764 55.7372 17.8021 55.8134 17.8391C55.8862 17.8737 55.9578 17.9072 56.0317 17.9384C56.071 17.9557 56.1091 17.9765 56.1495 17.9927C56.2015 18.0135 56.2546 18.0285 56.3077 18.0469C56.3481 18.062 56.3874 18.0793 56.4278 18.0931C56.541 18.1313 56.6542 18.1671 56.772 18.1855C56.824 18.1936 56.8736 18.1959 56.9233 18.1959C56.9729 18.1959 57.0226 18.1936 57.0746 18.1855C57.1924 18.1671 57.3067 18.1313 57.4187 18.0931C57.4592 18.0793 57.4984 18.0608 57.5388 18.0458C57.592 18.0273 57.6451 18.0123 57.6971 17.9915C57.7375 17.9753 57.7756 17.9546 57.8149 17.9372C57.8888 17.906 57.9604 17.8726 58.0331 17.8379C58.1105 17.801 58.1856 17.7628 58.2607 17.7213C58.3034 17.6982 58.3484 17.6797 58.39 17.6554C58.4281 17.6335 58.4662 17.6092 58.5032 17.5861C58.539 17.563 58.5748 17.5319 58.6129 17.5134C59.0206 17.2397 59.3844 16.8944 59.6477 16.4786C60.0704 15.8087 60.1894 15.0257 59.9076 14.3305L59.9099 14.3316Z" fill="#C22A22"/>
<path id="Vector_4" d="M56.168 30.8848C56.168 31.222 56.0537 31.4819 55.8227 31.6632C55.5929 31.8445 55.2638 31.9358 54.8353 31.9358H54.4438V33.2454H54.0569V29.9158H54.9196C55.7523 29.9158 56.168 30.2392 56.168 30.886V30.8848ZM54.4438 31.602H54.7926C55.1356 31.602 55.3839 31.5466 55.5375 31.4357C55.6911 31.3248 55.7673 31.147 55.7673 30.9021C55.7673 30.6815 55.6945 30.5187 55.5513 30.4101C55.407 30.3027 55.1818 30.2484 54.8769 30.2484H54.4438V31.6008V31.602ZM60.2229 31.5743C60.2229 32.1078 60.0878 32.5259 59.8187 32.832C59.5496 33.1369 59.1743 33.2893 58.695 33.2893C58.2157 33.2893 57.8265 33.1392 57.5597 32.8401C57.2929 32.5398 57.1601 32.1171 57.1601 31.5697C57.1601 31.0222 57.2941 30.6076 57.5609 30.3097C57.8276 30.0105 58.2076 29.8616 58.6996 29.8616C59.1916 29.8616 59.5519 30.0128 59.8199 30.3177C60.0889 30.6215 60.2229 31.0407 60.2229 31.5754V31.5743ZM57.5689 31.5743C57.5689 32.0247 57.6648 32.3677 57.8565 32.5998C58.0482 32.8331 58.3277 32.9498 58.6938 32.9498C59.0599 32.9498 59.3417 32.8343 59.53 32.601C59.7182 32.3689 59.8118 32.0258 59.8118 31.5743C59.8118 31.1227 59.7182 30.7866 59.53 30.5557C59.3429 30.3235 59.0657 30.208 58.6973 30.208C58.3289 30.208 58.0482 30.3247 57.8554 30.558C57.6637 30.7913 57.5678 31.1308 57.5678 31.5754L57.5689 31.5743ZM64.3378 33.2443H63.9544L63.2823 31.0142C63.2511 30.916 63.2141 30.7913 63.1748 30.6411C63.1356 30.491 63.1148 30.4009 63.1136 30.3697C63.0801 30.5707 63.027 30.7901 62.9543 31.028L62.3029 33.2443H61.9206L61.0348 29.9147H61.4448L61.9714 31.9716C62.0442 32.2603 62.0973 32.5213 62.1308 32.7546C62.1712 32.4763 62.2325 32.2049 62.3133 31.9392L62.9104 29.9147H63.3204L63.9463 31.9577C64.0191 32.1933 64.0803 32.4589 64.1311 32.7546C64.16 32.5386 64.2143 32.2753 64.2951 31.9658L64.8194 29.9135H65.2294L64.339 33.2431L64.3378 33.2443ZM68.0728 33.2443H66.2169V29.9147H68.0728V30.2588H66.6038V31.3317H67.9839V31.6736H66.6038V32.899H68.0728V33.2454V33.2443ZM69.6654 31.8595V33.2443H69.2785V29.9147H70.192C70.6009 29.9147 70.9023 29.9932 71.0975 30.1491C71.2927 30.3062 71.3897 30.5406 71.3897 30.8548C71.3897 31.2959 71.1668 31.5928 70.7198 31.7475L71.6241 33.2443H71.1668L70.3607 31.8595H69.6654ZM69.6654 31.5269H70.1967C70.4704 31.5269 70.6702 31.4726 70.7984 31.3641C70.9254 31.2555 70.9901 31.0927 70.9901 30.8756C70.9901 30.6584 70.9254 30.4968 70.7949 30.3997C70.6656 30.3027 70.4565 30.2542 70.1701 30.2542H69.6666V31.5281L69.6654 31.5269ZM74.4848 33.2443H72.6289V29.9147H74.4848V30.2588H73.0158V31.3317H74.3959V31.6736H73.0158V32.899H74.4848V33.2454V33.2443ZM78.348 31.5477C78.348 32.0974 78.199 32.5178 77.8999 32.8077C77.6019 33.0988 77.1723 33.2443 76.6122 33.2443H75.6894V29.9147H76.7092C77.2277 29.9147 77.6296 30.0579 77.916 30.3455C78.2025 30.633 78.3468 31.0338 78.3468 31.5489L78.348 31.5477ZM77.938 31.5616C77.938 31.1273 77.8294 30.8005 77.6111 30.5799C77.3929 30.3593 77.0695 30.2496 76.6399 30.2496H76.0774V32.9093H76.5486C77.0106 32.9093 77.3571 32.7962 77.5892 32.5686C77.8213 32.3411 77.938 32.0051 77.938 31.5604V31.5616ZM81.2352 29.9135H82.1753C82.6177 29.9135 82.9364 29.9794 83.1339 30.1122C83.3314 30.2438 83.4296 30.4529 83.4296 30.7381C83.4296 30.9356 83.3741 31.0985 83.2644 31.2267C83.1535 31.3548 82.9942 31.438 82.7828 31.4761V31.4981C83.2887 31.5847 83.5416 31.8503 83.5416 32.2949C83.5416 32.5929 83.4411 32.825 83.2402 32.9913C83.0392 33.1588 82.7574 33.242 82.3959 33.242H81.2341V29.9124L81.2352 29.9135ZM81.6221 31.3398H82.2596C82.5333 31.3398 82.7297 31.2971 82.8498 31.2116C82.9699 31.1262 83.03 30.9818 83.03 30.7774C83.03 30.5903 82.963 30.4563 82.829 30.3732C82.695 30.29 82.4825 30.2496 82.1915 30.2496H81.6221V31.341V31.3398ZM81.6221 31.6678V32.914H82.3174C82.5865 32.914 82.7886 32.862 82.9237 32.7569C83.06 32.653 83.1281 32.4901 83.1281 32.2684C83.1281 32.0628 83.0588 31.9104 82.9191 31.8133C82.7805 31.7163 82.5692 31.6667 82.285 31.6667H81.6221V31.6678ZM85.5719 31.5789L86.46 29.9147H86.8792L85.7682 31.9531V33.2443H85.3767V31.9716L84.268 29.9147H84.6919L85.5731 31.5789H85.5719ZM89.4374 28.4814H118.782V34.6694H89.4374V28.4814Z" fill="white"/>
<path id="Vector_5" d="M95.4266 33.8713V28.6812H89.6371V34.4707H118.582V33.8713H95.4255H95.4266ZM94.8272 33.8713H90.2353V29.2794H94.8272V33.8713Z" fill="#C22A22"/>
<path id="Vector_6" d="M90.4352 29.4792H91.8326V30.8767H90.4352V29.4792ZM90.4352 32.2741H91.8326V33.6715H90.4352V32.2741ZM91.8326 30.8767H93.23V32.2741H91.8326V30.8767ZM93.23 29.4792H94.6275V30.8767H93.23V29.4792ZM93.23 32.2741H94.6275V33.6715H93.23V32.2741Z" fill="#C22A22"/>
<path id="Vector_7" d="M95.4221 28.6812H118.583V33.8713H95.4221V28.6812Z" fill="black"/>
<path id="Vector_8" d="M110.17 29.8443C110.17 29.7843 110.202 29.752 110.263 29.752H110.716C110.763 29.752 110.8 29.7704 110.827 29.812L111.948 31.5063C112.054 31.6679 112.169 31.84 112.291 32.0387C112.309 32.071 112.341 32.0664 112.341 32.0294C112.337 31.84 112.327 31.5571 112.327 31.3677V29.8443C112.327 29.7843 112.36 29.752 112.42 29.752H112.791C112.851 29.752 112.883 29.7843 112.883 29.8443V32.8991C112.883 32.9591 112.851 32.9915 112.791 32.9915H112.351C112.304 32.9915 112.267 32.973 112.24 32.9314L111.106 31.2372C110.995 31.0755 110.884 30.9034 110.763 30.7047C110.744 30.6724 110.712 30.677 110.712 30.714C110.716 30.9034 110.726 31.1863 110.726 31.3757V32.8991C110.726 32.9591 110.693 32.9915 110.633 32.9915H110.263C110.202 32.9915 110.17 32.9591 110.17 32.8991V29.8443ZM108.259 29.752H108.634C108.646 29.752 108.658 29.7543 108.669 29.759C108.681 29.7636 108.691 29.7704 108.699 29.779C108.708 29.7876 108.715 29.7978 108.719 29.809C108.724 29.8202 108.727 29.8322 108.727 29.8443V32.8991C108.727 32.9236 108.717 32.9471 108.699 32.9644C108.682 32.9817 108.659 32.9915 108.634 32.9915H108.259C108.234 32.9915 108.211 32.9817 108.193 32.9644C108.176 32.9471 108.166 32.9236 108.166 32.8991V29.8443C108.166 29.8322 108.169 29.8202 108.173 29.809C108.178 29.7978 108.185 29.7876 108.193 29.779C108.202 29.7704 108.212 29.7636 108.223 29.759C108.235 29.7543 108.247 29.752 108.259 29.752ZM106.977 32.5249C106.861 32.5249 106.76 32.5249 106.7 32.5064C106.635 32.4879 106.598 32.451 106.561 32.3955L106.186 31.84C106.167 31.8123 106.176 31.7938 106.209 31.78C106.32 31.7338 106.421 31.6645 106.506 31.5813C106.695 31.3919 106.812 31.109 106.812 30.8133C106.812 30.5177 106.701 30.2255 106.506 30.0361C106.321 29.8513 106.103 29.7543 105.738 29.7543H104.465C104.405 29.7543 104.373 29.7866 104.373 29.8467V32.9014C104.373 32.9614 104.405 32.9938 104.465 32.9938H104.845C104.905 32.9938 104.937 32.9614 104.937 32.9014V31.9105C104.937 31.8827 104.956 31.8643 104.983 31.8643H105.456C105.516 31.8643 105.562 31.8874 105.594 31.9382L106.122 32.7247C106.312 33.0065 106.498 33.0631 106.793 33.0631C106.839 33.0631 106.964 33.0631 107.006 33.0492C107.052 33.0353 107.07 33.003 107.07 32.9614V32.6184C107.07 32.5584 107.038 32.526 106.978 32.526L106.977 32.5249ZM106.084 31.1829C105.987 31.2707 105.881 31.3168 105.704 31.3168H104.982C104.955 31.3168 104.936 31.2984 104.936 31.2707V30.3444C104.936 30.3167 104.955 30.2982 104.982 30.2982H105.704C105.88 30.2982 105.987 30.3444 106.079 30.4322C106.176 30.52 106.227 30.6632 106.227 30.8122C106.227 30.9507 106.176 31.094 106.084 31.1829ZM100.718 32.6773C100.483 32.4463 100.366 32.1495 100.366 31.6818V29.8443C100.366 29.7843 100.398 29.752 100.459 29.752L100.848 29.7566C100.908 29.7566 100.94 29.7889 100.94 29.849V31.7557C100.94 32.019 101.009 32.1773 101.143 32.3205C101.273 32.4637 101.486 32.5283 101.694 32.5283C101.902 32.5283 102.13 32.4637 102.264 32.3205C102.393 32.1773 102.458 32.0202 102.458 31.7557V29.8443C102.458 29.7843 102.49 29.752 102.55 29.752H102.939C102.999 29.752 103.032 29.7843 103.032 29.8443V31.7049C103.032 32.168 102.916 32.4452 102.684 32.6819C102.444 32.9268 102.073 33.0619 101.693 33.0619C101.313 33.0619 100.953 32.9187 100.716 32.6773M98.9502 30.0534C98.747 29.8547 98.5148 29.7531 98.1222 29.7531H96.7894C96.7294 29.7531 96.697 29.7854 96.697 29.8455V32.9002C96.697 32.9603 96.7294 32.9926 96.7894 32.9926H97.1694C97.2294 32.9926 97.2618 32.9603 97.2618 32.9002V32.0583C97.2618 32.0306 97.2803 32.0121 97.308 32.0121H98.1037C98.5021 32.0121 98.747 31.9105 98.9456 31.7118C99.1489 31.5086 99.2748 31.2071 99.2748 30.8884C99.2748 30.5696 99.1547 30.259 98.9502 30.0557V30.0534ZM98.5333 31.3122C98.4271 31.4139 98.3023 31.4647 98.0979 31.4647H97.3068C97.2791 31.4647 97.2606 31.4462 97.2606 31.4185V30.3444C97.2606 30.3167 97.2791 30.2982 97.3068 30.2982H98.0979C98.3012 30.2982 98.4271 30.3537 98.5333 30.4507C98.6442 30.5523 98.6996 30.7186 98.6996 30.8861C98.6996 31.0535 98.6442 31.2106 98.5333 31.3122ZM117.109 32.8852L115.841 29.8212C115.822 29.7704 115.785 29.752 115.734 29.752H115.253C115.202 29.752 115.165 29.7797 115.147 29.8259L113.892 32.8852C113.865 32.9499 113.897 32.9915 113.966 32.9915H114.374C114.425 32.9915 114.462 32.9637 114.48 32.9175L114.725 32.3112C114.739 32.2743 114.762 32.2604 114.799 32.2604H116.187C116.224 32.2604 116.247 32.2743 116.261 32.3112L116.511 32.9175C116.529 32.9637 116.566 32.9915 116.617 32.9915H117.038C117.108 32.9915 117.135 32.9499 117.108 32.8852H117.109ZM115.956 31.7188H115.025C114.984 31.7188 114.961 31.6957 114.979 31.6541L115.187 31.1124C115.279 30.8768 115.363 30.6586 115.455 30.4137C115.473 30.3629 115.501 30.3629 115.52 30.4137C115.612 30.6586 115.695 30.8768 115.788 31.1124L115.995 31.6541C116.014 31.6957 115.995 31.7188 115.954 31.7188H115.956Z" fill="white"/>
<g id="Group_2">
<path id="Vector_9" d="M117.169 29.5105C116.876 29.5105 116.639 29.7461 116.639 30.0406C116.638 30.1103 116.652 30.1794 116.679 30.2438C116.705 30.3083 116.744 30.3668 116.793 30.4161C116.843 30.4654 116.901 30.5044 116.966 30.531C117.03 30.5575 117.099 30.571 117.169 30.5707C117.463 30.5707 117.699 30.3339 117.699 30.0406C117.699 29.7473 117.463 29.5105 117.169 29.5105ZM117.169 30.4818C116.928 30.4818 116.733 30.2774 116.733 30.0406C116.733 29.8038 116.928 29.6052 117.169 29.6052C117.41 29.6052 117.61 29.7992 117.61 30.0406C117.61 30.282 117.41 30.4818 117.169 30.4818Z" fill="white"/>
<path id="Vector_10" d="M117.337 30.2035L117.274 30.1088C117.352 30.0823 117.395 30.0095 117.395 29.9356C117.395 29.8363 117.327 29.752 117.206 29.752H116.97V30.3132H117.07V30.1192H117.164L117.264 30.2659C117.305 30.3294 117.337 30.3294 117.416 30.3236V30.2347C117.374 30.2347 117.364 30.2405 117.337 30.2035ZM117.201 30.0257H117.07V29.8478H117.201C117.243 29.8478 117.29 29.8686 117.29 29.9367C117.29 30.0003 117.249 30.0257 117.201 30.0257Z" fill="white"/>
</g>
<path id="Vector_11" d="M122.972 23.8491C122.972 24.5074 122.544 25.0629 121.772 25.0629C121.001 25.0629 120.572 24.5074 120.572 23.8491C120.572 23.1908 121.004 22.6353 121.772 22.6353C122.54 22.6353 122.972 23.1873 122.972 23.8491ZM120.824 23.8421C120.824 24.3942 121.167 24.833 121.772 24.833C122.378 24.833 122.723 24.3942 122.723 23.8456C122.723 23.297 122.378 22.8547 121.772 22.8547C121.167 22.8547 120.824 23.2935 120.824 23.8491V23.8421ZM122.001 23.9957C122.477 23.916 122.427 23.2081 121.884 23.2081H121.313V24.4554H121.543V24.0234H121.758L122.104 24.4554H122.357V24.4092L122.001 23.9934V23.9969V23.9957ZM121.884 23.4241C122.167 23.4241 122.164 23.826 121.877 23.826H121.541V23.4241H121.884Z" fill="white"/>
</g>
<defs>
<clipPath id="clip0_1_787">
<rect width="126" height="35" fill="white" transform="translate(0.625244 0.628906)"/>
</clipPath>
</defs>
</svg>
