<svg width="79" height="79" viewBox="0 0 79 79" fill="none" xmlns="http://www.w3.org/2000/svg">
<g clip-path="url(#clip0_1_42)">
<path d="M20.1187 33.7296C20.1187 27.2378 15.8321 21.9666 10.5746 21.9666C5.31713 21.9666 1.03052 27.2378 1.03052 33.7284C1.03052 40.2202 5.31713 45.4731 10.5746 45.4731C15.8321 45.4731 20.1187 40.203 20.1187 33.7296ZM10.5746 42.1814C7.09405 42.1814 4.27295 38.3894 4.27295 33.7101C4.27295 29.0308 7.09405 25.2399 10.5746 25.2399C14.0552 25.2399 16.8397 29.0491 16.8397 33.7284C16.8397 38.4077 14.0552 42.1814 10.5746 42.1814ZM78.4459 33.7101C78.4459 27.2367 74.1593 21.9666 68.9018 21.9666C63.6443 21.9666 59.3577 27.2378 59.3577 33.7284C59.2913 34.3547 59.5855 34.9649 60.1134 35.2993C60.3721 35.4631 60.6721 35.5501 60.9783 35.5501C61.2846 35.5501 61.5846 35.4631 61.8433 35.2993C62.1035 35.1342 62.3122 34.8995 62.4457 34.6219C62.5793 34.3442 62.6324 34.0347 62.599 33.7284C62.599 29.0686 65.4212 25.2583 68.9018 25.2583C72.3824 25.2583 75.2035 29.0491 75.2035 33.7284C75.2035 38.3894 72.3824 42.1814 68.9018 42.1814C68.6866 42.1823 68.4737 42.2256 68.2753 42.3089C68.0768 42.3922 67.8967 42.5137 67.7453 42.6666C67.5939 42.8195 67.4741 43.0008 67.3928 43.2001C67.3115 43.3993 67.2702 43.6126 67.2714 43.8278C67.2704 44.0429 67.3117 44.2561 67.3931 44.4553C67.4745 44.6544 67.5943 44.8355 67.7457 44.9883C67.8971 45.1411 68.0772 45.2625 68.2755 45.3457C68.4739 45.4289 68.6867 45.4722 68.9018 45.4731C74.1593 45.4731 78.4459 40.2018 78.4459 33.7101ZM51.6455 24.7591C56.903 24.7591 61.1896 19.4878 61.1896 12.9961C61.1896 6.50434 56.8847 1.23309 51.6455 1.23309C46.4063 1.23309 42.1014 6.50434 42.1014 12.9961C42.1014 19.4878 46.3513 24.7591 51.6455 24.7591ZM51.6455 4.5259C55.1261 4.5259 57.9472 8.31676 57.9472 12.9961C57.9472 17.6754 55.0894 21.4674 51.6455 21.4674C48.2015 21.4674 45.3438 17.6754 45.3438 12.9961C45.3438 8.31676 48.1466 4.5259 51.6455 4.5259ZM27.831 24.7591C33.0885 24.7591 37.3751 19.4878 37.3751 12.9961C37.3751 6.50434 33.1251 1.23309 27.831 1.23309C22.5368 1.23309 18.2869 6.50434 18.2869 12.9961C18.2869 19.4878 22.5918 24.7591 27.831 24.7591ZM27.831 4.5259C31.3116 4.5259 34.1327 8.31676 34.1327 12.9961C34.1327 17.6754 31.3299 21.4674 27.831 21.4674C24.3321 21.4674 21.5293 17.6754 21.5293 12.9961C21.5293 8.31676 24.387 4.5259 27.831 4.5259ZM62.6368 54.2215L52.5614 36.411C49.2274 30.5478 44.666 27.3111 39.7382 27.3111C34.8105 27.3111 30.2491 30.5478 26.915 36.411L16.8397 54.2032C16.1704 55.3789 15.6182 56.6176 15.191 57.9013C14.5696 59.5373 14.259 61.2749 14.275 63.0248C14.3518 70.3409 20.0443 76.3403 27.2814 76.7296H27.831C29.6629 76.7365 31.4764 76.3644 33.1618 75.6385C34.3708 75.1576 36.3859 74.2325 38.4742 73.2342L39.2253 73.549C43.2897 75.4524 47.6925 76.527 52.1767 76.7101C59.4241 76.3495 65.1487 70.3672 65.2564 63.042C65.2156 61.3291 64.9129 59.6325 64.3587 58.0112C63.9131 56.6931 63.3363 55.4231 62.6368 54.2203V54.2215ZM52.1584 73.4379C48.8331 73.3272 45.5556 72.6126 42.4861 71.329L43.1089 71.0153L44.9408 70.1635C45.061 70.0925 45.1721 70.0055 45.2705 69.9047L48.8244 68.074C49.6189 67.6606 49.9349 66.6771 49.5342 65.8711C49.4399 65.6798 49.3087 65.509 49.1483 65.3684C48.9879 65.2278 48.8014 65.1201 48.5993 65.0517C48.3973 64.9832 48.1838 64.9552 47.9709 64.9693C47.7581 64.9834 47.5501 65.0393 47.3589 65.1338L45.527 66.0211C42.6876 67.482 37.943 69.9425 35.9462 70.7748L35.763 70.9042C34.2426 71.6255 32.832 72.2541 31.9527 72.6056C30.575 73.2311 29.0672 73.5165 27.5562 73.4379H27.3913C21.89 73.1471 17.5507 68.6041 17.4625 63.0431C17.4667 63.0001 17.4667 62.9568 17.4625 62.9138C17.4694 61.5914 17.7178 60.2804 18.1953 59.0485C18.5594 57.9551 19.0311 56.9018 19.6058 55.9045L29.6629 38.0563C32.3924 33.2476 35.9462 30.6589 39.6833 30.6589C43.4203 30.6589 47.0108 33.3037 49.7037 38.0574L59.834 55.8679C60.4065 56.8663 60.8782 57.9196 61.2445 59.0119C61.7059 60.3068 61.9659 61.6681 62.0139 63.0431C61.9361 68.5812 57.6346 73.1185 52.1584 73.4379Z" fill="#6504B5"/>
</g>
<defs>
<clipPath id="clip0_1_42">
<rect width="79" height="79" fill="white"/>
</clipPath>
</defs>
</svg>
