<svg width="206" height="20" viewBox="0 0 206 20" fill="none" xmlns="http://www.w3.org/2000/svg">
<g clip-path="url(#clip0_1_259)">
<path d="M94.6917 0.000549316H0V19.9709H94.6917V0.000549316Z" fill="white"/>
<path d="M19.3235 17.3939V0.646225H0.645752V19.3309H94.0519V17.3996H19.3235V17.3939ZM17.3923 17.3939H2.57695V2.57755H17.3923V17.3939Z" fill="#E1251B"/>
<path d="M7.73098 3.22324H3.22266V7.73156H7.73098V3.22324ZM7.73098 12.2399H3.22266V16.7482H7.73098V12.2399ZM12.2393 7.73156H7.73098V12.2399H12.2393V7.73156ZM16.7476 3.22324H12.2393V7.73156H16.7476V3.22324ZM16.7476 12.2399H12.2393V16.7482H16.7476V12.2399Z" fill="#E1251B"/>
<path d="M94.0518 0.646225H19.312V17.3939H94.0518V0.646225Z" fill="#231F20"/>
<path d="M66.9007 4.40031C66.9007 4.20604 67.0035 4.10319 67.1978 4.10319H68.6604C68.809 4.10319 68.929 4.16033 69.0204 4.29746L72.6371 9.76573C72.9799 10.2857 73.3513 10.84 73.7398 11.4856C73.797 11.5885 73.9055 11.5771 73.9055 11.4571C73.8884 10.8457 73.8598 9.93144 73.8598 9.32004V4.40031C73.8598 4.20604 73.9627 4.10319 74.1569 4.10319H75.3511C75.5454 4.10319 75.6482 4.20604 75.6482 4.40031V14.2569C75.6482 14.4512 75.5454 14.554 75.3511 14.554H73.9341C73.7856 14.554 73.6656 14.4969 73.5742 14.3598L69.9174 8.8915C69.5575 8.37153 69.2032 7.81727 68.8147 7.17159C68.7576 7.06874 68.649 7.08017 68.649 7.20016C68.6662 7.81156 68.6947 8.72579 68.6947 9.33719V14.2512C68.6947 14.4455 68.5919 14.5483 68.3976 14.5483H67.2035C67.0092 14.5483 66.9064 14.4455 66.9064 14.2512V4.40031H66.9007ZM61.9412 4.10319H60.73C60.6512 4.10319 60.5756 4.13449 60.5199 4.19021C60.4641 4.24594 60.4328 4.32151 60.4328 4.40031V14.2626C60.4328 14.4266 60.5654 14.5598 60.73 14.5598H61.9412C62.02 14.5598 62.0956 14.5285 62.1513 14.4727C62.207 14.417 62.2383 14.3414 62.2383 14.2626V4.40031C62.2383 4.32151 62.207 4.24594 62.1513 4.19021C62.0956 4.13449 62.02 4.10319 61.9412 4.10319ZM56.599 13.0456C56.2276 13.0456 55.8962 13.0456 55.702 12.9884C55.4906 12.9313 55.3706 12.8113 55.2563 12.6284L54.045 10.8342C53.9879 10.7428 54.0165 10.6857 54.1193 10.64C54.4793 10.4914 54.8049 10.2686 55.0735 10C55.6848 9.38861 56.0619 8.47438 56.0619 7.52014C56.0619 6.56591 55.702 5.6231 55.0735 5.01171C54.4735 4.41174 53.7765 4.10319 52.5938 4.10319H48.4857C48.2914 4.10319 48.1886 4.20604 48.1886 4.40031V14.2569C48.1886 14.4512 48.2914 14.554 48.4857 14.554H49.7084C49.9027 14.554 50.0055 14.4512 50.0055 14.2569V11.0628C50.0055 10.9714 50.0626 10.9142 50.1541 10.9142H51.6796C51.8739 10.9142 52.0224 10.9885 52.1253 11.1542L53.8279 13.6912C54.4393 14.5998 55.0392 14.7826 55.9934 14.7826C56.1419 14.7826 56.5476 14.7826 56.679 14.7369C56.8276 14.6912 56.8904 14.5883 56.8904 14.4512V13.3484C56.8904 13.1541 56.7876 13.0513 56.5933 13.0513L56.599 13.0456ZM53.7193 8.71436C53.4051 9.00006 53.0623 9.14863 52.4966 9.14863H50.1655C50.0741 9.14863 50.0169 9.09149 50.0169 9.00006V6.01165C50.0169 5.92023 50.0741 5.86309 50.1655 5.86309H52.4966C53.0623 5.86309 53.4051 6.01165 53.7079 6.29735C54.0222 6.58305 54.1879 7.04588 54.1879 7.52014C54.1879 7.96583 54.0222 8.42867 53.7251 8.71436H53.7193ZM36.4014 13.5427C35.6415 12.7941 35.2644 11.8399 35.2644 10.3314V4.40031C35.2644 4.20604 35.3672 4.10319 35.5615 4.10319L36.8185 4.12033C37.0128 4.12033 37.1156 4.22318 37.1156 4.41746V10.5714C37.1156 11.4228 37.3384 11.9313 37.7727 12.3942C38.1898 12.857 38.8754 13.0684 39.5496 13.0684C40.2238 13.0684 40.9551 12.857 41.3894 12.3942C41.8065 11.9313 42.0179 11.4228 42.0179 10.5714V4.40031C42.0179 4.20604 42.1207 4.10319 42.315 4.10319H43.572C43.7662 4.10319 43.8691 4.20604 43.8691 4.40031V10.4057C43.8691 11.897 43.4977 12.7941 42.7492 13.5598C41.9722 14.3541 40.778 14.7826 39.5553 14.7826C38.3326 14.7826 37.167 14.3198 36.4014 13.5427ZM30.6992 5.07456C30.0421 4.4346 29.2937 4.10319 28.0252 4.10319H23.7229C23.5286 4.10319 23.4258 4.20604 23.4258 4.40031V14.2569C23.4258 14.4512 23.5286 14.554 23.7229 14.554H24.9456C25.1399 14.554 25.2427 14.4512 25.2427 14.2569V11.5371C25.2427 11.4456 25.2998 11.3885 25.3913 11.3885H27.9624C29.248 11.3885 30.0364 11.0571 30.6821 10.4171C31.3391 9.76002 31.7448 8.78864 31.7448 7.76013C31.7448 6.73161 31.3563 5.72596 30.6992 5.06885V5.07456ZM29.3565 9.1372C29.0137 9.46861 28.608 9.6286 27.951 9.6286H25.397C25.3056 9.6286 25.2484 9.57146 25.2484 9.48004V6.01165C25.2484 5.92023 25.3056 5.86309 25.397 5.86309H27.951C28.608 5.86309 29.0137 6.04022 29.3565 6.35449C29.7165 6.6859 29.8936 7.22302 29.8936 7.76013C29.8936 8.29724 29.7165 8.80579 29.3565 9.1372ZM89.2923 14.2112L85.2014 4.32032C85.1442 4.15461 85.0242 4.09747 84.8585 4.09747H83.3044C83.1387 4.09747 83.0188 4.1889 82.9616 4.33746L78.9164 14.2112C78.825 14.4226 78.9335 14.554 79.1563 14.554H80.4705C80.6362 14.554 80.7562 14.4626 80.8133 14.3141L81.6075 12.3599C81.6532 12.2399 81.7275 12.1942 81.8475 12.1942H86.3269C86.4469 12.1942 86.5212 12.2399 86.5669 12.3599L87.3725 14.3141C87.4297 14.4626 87.5497 14.554 87.7153 14.554H89.0752C89.298 14.554 89.3894 14.4169 89.298 14.2112H89.2923ZM85.5727 10.4457H82.5731C82.436 10.4457 82.3617 10.3714 82.4245 10.2343L83.0987 8.48581C83.3959 7.72585 83.6644 7.02303 83.9672 6.22879C84.0244 6.06308 84.1158 6.06308 84.1786 6.22879C84.4757 7.02303 84.7443 7.72013 85.0471 8.48581L85.7213 10.2343C85.7784 10.3657 85.7213 10.4457 85.5899 10.4457H85.5727ZM89.4866 3.32037C88.5381 3.32037 87.7782 4.08033 87.7782 5.02885C87.7782 5.97737 88.5381 6.73733 89.4866 6.73733C90.435 6.73733 91.1949 5.97737 91.1949 5.02885C91.1949 4.08033 90.435 3.32037 89.4866 3.32037ZM89.4866 6.45163C88.7095 6.45163 88.081 5.78881 88.081 5.02885C88.081 4.26889 88.7095 3.62321 89.4866 3.62321C90.2636 3.62321 90.9092 4.25175 90.9092 5.02885C90.9063 5.40527 90.7554 5.76543 90.4893 6.03161C90.2231 6.29778 89.863 6.44864 89.4866 6.45163Z" fill="white"/>
<path d="M90.0293 5.56024L89.8236 5.2574C90.075 5.17169 90.2121 4.93742 90.2121 4.69743C90.2121 4.37745 89.9893 4.10318 89.6007 4.10318H88.8408V5.91451H89.1608V5.28597H89.4636L89.7836 5.76023C89.9207 5.96593 90.0235 5.96593 90.2749 5.94879V5.66309C90.1378 5.66309 90.1035 5.68024 90.0235 5.56024H90.0293ZM89.5893 4.98313H89.1665V4.40602H89.5893C89.7264 4.40602 89.875 4.47459 89.875 4.69172C89.875 4.89742 89.7379 4.97742 89.5893 4.97742V4.98313ZM110.918 10.7371L108.319 6.64018H109.461L111.455 9.77144L113.466 6.64018H114.558L111.964 10.72V13.1255H110.918V10.7371ZM117.666 10.6914C117.666 9.6743 117.306 9.09148 116.232 9.09148C115.158 9.09148 114.798 9.6743 114.798 10.6914C114.798 11.7085 115.152 12.3027 116.232 12.3027C117.312 12.3027 117.666 11.7028 117.666 10.6914ZM113.769 10.6628C113.769 9.00005 114.461 8.10867 116.226 8.10867C117.992 8.10867 118.683 9.00005 118.683 10.6628C118.683 12.3256 117.992 13.217 116.226 13.217C114.461 13.217 113.769 12.3256 113.769 10.6628ZM119.677 10.9542V8.22295H120.694V10.9828C120.694 11.7199 120.7 12.2799 121.888 12.2799C123.077 12.2799 123.082 11.7199 123.082 10.9657V8.22295H124.077V10.9371C124.077 12.4684 123.768 13.2113 121.888 13.2113C120.009 13.2113 119.677 12.4741 119.677 10.9485M125.065 8.28581L125.865 8.22867L125.968 8.78864C126.168 8.45723 126.768 8.19438 127.596 8.17724V9.20004C126.425 9.21147 126.094 9.76001 126.094 10.6114V13.1313H125.071V8.29152L125.065 8.28581ZM133.453 9.94857C134.344 9.94857 134.784 9.62288 134.784 8.76007C134.784 7.89726 134.367 7.60585 133.436 7.60585H131.51V9.95429H133.453V9.94857ZM130.476 6.64018H133.453C135.207 6.64018 135.841 7.37729 135.841 8.70864C135.841 10.04 135.224 10.9142 133.407 10.9142H131.51V13.1255H130.476V6.64018ZM137.412 10.2114H139.995C139.949 9.5086 139.881 9.01148 138.829 9.01148C137.778 9.01148 137.492 9.48574 137.412 10.2114ZM136.424 10.6685C136.424 9.27432 136.864 8.11439 138.858 8.11439C140.852 8.11439 140.995 9.5486 140.96 11.0971H137.412C137.469 11.8685 137.778 12.3484 138.875 12.3484C139.652 12.3484 140.04 12.1485 140.412 11.8742L140.955 12.5827C140.395 13.0113 139.806 13.2227 138.869 13.2227C136.818 13.2227 136.418 12.0742 136.418 10.6685M141.532 8.22295H142.406L142.594 6.90874L143.389 6.74304V8.22295H144.64V9.14862H143.389V11.5656C143.389 11.977 143.44 12.2227 144.074 12.2227H144.64V13.1255C144.503 13.137 144.046 13.137 143.88 13.137C142.663 13.137 142.377 12.697 142.377 11.7199V9.15433H141.537V8.22867L141.532 8.22295ZM145.583 13.8169C146.074 13.5655 146.177 13.4684 146.177 13.1255H145.583V11.8113H146.817V12.7656C146.817 13.6741 146.68 13.9655 145.846 14.3483L145.583 13.8112V13.8169ZM155.307 9.89715C155.307 8.41723 154.65 7.56013 153.022 7.56013C151.393 7.56013 150.748 8.41723 150.748 9.89715C150.748 11.3771 151.405 12.2456 153.022 12.2456C154.639 12.2456 155.307 11.3885 155.307 9.89715ZM149.679 9.88001C149.679 7.49728 150.948 6.53733 153.022 6.53733C155.096 6.53733 156.376 7.49728 156.376 9.88001C156.376 12.2627 155.096 13.2341 153.022 13.2341C150.948 13.2341 149.679 12.2684 149.679 9.88001ZM157.313 10.9542V8.22295H158.33V10.9828C158.33 11.7199 158.335 12.2799 159.524 12.2799C160.712 12.2799 160.718 11.7199 160.718 10.9657V8.22295H161.712V10.9371C161.712 12.4684 161.404 13.2113 159.524 13.2113C157.644 13.2113 157.313 12.4741 157.313 10.9485M162.769 8.28581L163.569 8.22867L163.672 8.78864C163.872 8.45723 164.472 8.19438 165.3 8.17724V9.20004C164.129 9.21147 163.798 9.76001 163.798 10.6114V13.1313H162.775V8.29152L162.769 8.28581ZM171.157 9.94857C172.048 9.94857 172.488 9.62288 172.488 8.76007C172.488 7.89726 172.071 7.60585 171.14 7.60585H169.214V9.95429H171.157V9.94857ZM168.18 6.64018H171.157C172.911 6.64018 173.545 7.37729 173.545 8.70864C173.545 10.04 172.928 10.9142 171.111 10.9142H169.208V13.1255H168.174V6.64018H168.18ZM177.453 11.0171V10.7657H177.27C175.345 10.7657 174.979 10.9828 174.979 11.6399C174.979 12.097 175.191 12.3427 175.968 12.3427C177.019 12.3427 177.459 11.9428 177.459 11.0171M174.019 11.7199C174.019 10.3257 174.808 9.92572 177.219 9.92572H177.459C177.442 9.34289 177.288 9.06862 176.31 9.06862C175.705 9.06862 175.202 9.29718 174.894 9.48003L174.362 8.68007C174.694 8.45151 175.499 8.11439 176.419 8.11439C178.122 8.11439 178.442 8.68007 178.442 10.0743V11.7199C178.442 12.1656 178.476 12.2342 178.904 12.2342V13.1198C178.836 13.137 178.704 13.137 178.482 13.137C177.985 13.137 177.745 13.0398 177.619 12.6284C177.339 13.0055 176.802 13.2113 175.796 13.2113C174.351 13.2113 174.019 12.5484 174.019 11.7142M179.499 12.617L180.024 11.8285C180.567 12.177 181.213 12.3256 181.75 12.3256C182.538 12.3256 182.835 12.2113 182.835 11.7199C182.835 11.3199 182.561 11.2399 181.761 11.1085C180.59 10.9257 179.773 10.7371 179.773 9.56002C179.773 8.62865 180.304 8.10296 181.761 8.10296C182.521 8.10296 183.201 8.26295 183.687 8.54294L183.207 9.38289C182.847 9.18862 182.333 9.05148 181.79 9.05148C180.984 9.05148 180.784 9.23433 180.784 9.56002C180.784 9.95429 181.047 10.0514 181.79 10.1714C183.007 10.3714 183.83 10.52 183.83 11.6685C183.83 12.817 183.218 13.2113 181.698 13.2113C180.956 13.2113 180.173 13.0627 179.51 12.617M184.315 12.617L184.841 11.8285C185.384 12.177 186.029 12.3256 186.566 12.3256C187.355 12.3256 187.652 12.2113 187.652 11.7199C187.652 11.3199 187.378 11.2399 186.578 11.1085C185.407 10.9257 184.59 10.7371 184.59 9.56002C184.59 8.62865 185.121 8.10296 186.578 8.10296C187.338 8.10296 188.018 8.26295 188.503 8.54294L188.023 9.38289C187.663 9.18862 187.149 9.05148 186.606 9.05148C185.801 9.05148 185.601 9.23433 185.601 9.56002C185.601 9.95429 185.864 10.0514 186.606 10.1714C187.823 10.3714 188.646 10.52 188.646 11.6685C188.646 12.817 188.035 13.2113 186.515 13.2113C185.772 13.2113 184.989 13.0627 184.327 12.617M189.503 13.1255H190.509V8.22295H189.503V13.1255ZM189.492 7.68584H190.515V6.5659H189.492V7.68584ZM195.32 10.6914C195.32 9.6743 194.96 9.09148 193.886 9.09148C192.811 9.09148 192.451 9.6743 192.451 10.6914C192.451 11.7085 192.806 12.3027 193.886 12.3027C194.965 12.3027 195.32 11.7028 195.32 10.6914ZM191.423 10.6628C191.423 9.00005 192.114 8.10867 193.88 8.10867C195.645 8.10867 196.337 9.00005 196.337 10.6628C196.337 12.3256 195.645 13.217 193.88 13.217C192.114 13.217 191.423 12.3256 191.423 10.6628ZM197.262 8.28581L198.062 8.22867L198.148 8.65722C198.382 8.3658 198.856 8.11439 199.942 8.11439C201.462 8.11439 201.702 8.9372 201.702 10.1543V13.1313H200.69V10.3543C200.69 9.63431 200.622 9.12576 199.605 9.12576C198.485 9.12576 198.291 9.66859 198.291 10.44V13.1313H197.268V8.29152L197.262 8.28581ZM203.999 11.8113H202.765V13.1255H203.999V11.8113ZM204.296 7.42871C204.53 7.42871 204.61 7.37729 204.61 7.17158C204.61 6.96588 204.53 6.91445 204.296 6.91445H203.839V7.42871H204.301H204.296ZM204.244 7.74869H203.833V8.35438H203.462V6.58876H204.307C204.884 6.58876 204.987 6.82303 204.987 7.16016C204.987 7.41157 204.924 7.62299 204.616 7.71441L204.97 8.35438H204.57L204.239 7.74869H204.244ZM205.387 7.46871C205.387 6.76589 205.044 6.20021 204.181 6.20021C203.319 6.20021 202.976 6.76018 202.976 7.46871C202.976 8.17724 203.313 8.73721 204.181 8.73721C205.05 8.73721 205.387 8.17724 205.387 7.46871ZM202.742 7.46871C202.742 6.62876 203.222 5.98308 204.181 5.98308C205.141 5.98308 205.621 6.62876 205.621 7.46871C205.621 8.30866 205.141 8.95434 204.181 8.95434C203.222 8.95434 202.742 8.30866 202.742 7.46871Z" fill="white"/>
</g>
<defs>
<clipPath id="clip0_1_259">
<rect width="205.69" height="20" fill="white"/>
</clipPath>
</defs>
</svg>
