<svg width="15" height="10" viewBox="0 0 15 10" fill="none" xmlns="http://www.w3.org/2000/svg">
<path d="M9.15328 1.04921C8.77925 0.696298 8.28446 0.499717 7.77022 0.499717C7.25598 0.499717 6.76119 0.696298 6.38716 1.04921L1.36296 6.0734C1.1752 6.25737 1.02604 6.47695 0.924212 6.71928C0.822382 6.96162 0.769931 7.22183 0.769931 7.48469C0.769931 7.74755 0.822382 8.00777 0.924212 8.25011C1.02604 8.49244 1.1752 8.71202 1.36296 8.89598C1.54692 9.08374 1.7665 9.2329 2.00884 9.33473C2.25117 9.43656 2.51139 9.48901 2.77425 9.48901C3.03711 9.48901 3.29733 9.43656 3.53966 9.33473C3.782 9.2329 4.00158 9.08374 4.18554 8.89598L7.79845 5.28308L11.3549 8.89598C11.5389 9.08374 11.7584 9.2329 12.0008 9.33473C12.2431 9.43656 12.5033 9.48901 12.7662 9.48901C13.029 9.48901 13.2893 9.43656 13.5316 9.33473C13.7739 9.2329 13.9935 9.08374 14.1775 8.89598C14.3652 8.71202 14.5144 8.49244 14.6162 8.25011C14.7181 8.00777 14.7705 7.74755 14.7705 7.48469C14.7705 7.22183 14.7181 6.96162 14.6162 6.71928C14.5144 6.47695 14.3652 6.25737 14.1775 6.0734L9.15328 1.04921Z" fill="#6504B5"/>
</svg>
