<svg width="117" height="12" viewBox="0 0 117 12" fill="none" xmlns="http://www.w3.org/2000/svg">
<path id="Vector" d="M1.30713 2.28331L1.10142 1.98046C1.35285 1.89474 1.48999 1.66046 1.48999 1.42046C1.48999 1.10046 1.26713 0.826172 0.878562 0.826172H0.118561V2.6376H0.438559V2.00903H0.741416L1.06141 2.48331C1.19856 2.68903 1.30141 2.68903 1.55284 2.67189V2.38617C1.4157 2.38617 1.38141 2.40331 1.30141 2.28331H1.30713ZM0.867131 1.70617H0.444271V1.12903H0.867131C1.00427 1.12903 1.15285 1.1976 1.15285 1.41474C1.15285 1.62046 1.0157 1.70046 0.867131 1.70046V1.70617ZM22.1986 7.46046L19.5986 3.36331H20.7414L22.7357 6.49474L24.7471 3.36331H25.8386L23.2443 7.44332V9.84903H22.1986V7.46046ZM28.9471 7.41474C28.9471 6.3976 28.5871 5.81474 27.5128 5.81474C26.4386 5.81474 26.0786 6.3976 26.0786 7.41474C26.0786 8.43189 26.4328 9.02617 27.5128 9.02617C28.5928 9.02617 28.9471 8.42617 28.9471 7.41474ZM25.05 7.38617C25.05 5.72331 25.7414 4.83189 27.5071 4.83189C29.2728 4.83189 29.9643 5.72331 29.9643 7.38617C29.9643 9.04903 29.2728 9.94046 27.5071 9.94046C25.7414 9.94046 25.05 9.04903 25.05 7.38617ZM30.9586 7.6776V4.94617H31.9757V7.70617C31.9757 8.44331 31.9814 9.00331 33.17 9.00331C34.3586 9.00331 34.3643 8.44332 34.3643 7.68903V4.94617H35.3586V7.66046C35.3586 9.19189 35.05 9.93474 33.17 9.93474C31.29 9.93474 30.9586 9.1976 30.9586 7.67189M36.3471 5.00903L37.1471 4.95189L37.25 5.51189C37.45 5.18046 38.05 4.9176 38.8786 4.90046V5.92332C37.7071 5.93474 37.3757 6.48331 37.3757 7.33474V9.85474H36.3528V5.01474L36.3471 5.00903ZM44.7357 6.67189C45.6271 6.67189 46.0671 6.34617 46.0671 5.48331C46.0671 4.62046 45.65 4.32903 44.7186 4.32903H42.7928V6.6776H44.7357V6.67189ZM41.7586 3.36331H44.7357C46.49 3.36331 47.1243 4.10046 47.1243 5.43189C47.1243 6.76331 46.5071 7.6376 44.69 7.6376H42.7928V9.84903H41.7586V3.36331ZM48.6957 6.93474H51.2786C51.2328 6.23189 51.1643 5.73474 50.1128 5.73474C49.0614 5.73474 48.7757 6.20903 48.6957 6.93474ZM47.7071 7.39189C47.7071 5.9976 48.1471 4.8376 50.1414 4.8376C52.1357 4.8376 52.2786 6.27189 52.2443 7.82046H48.6957C48.7528 8.59189 49.0614 9.07189 50.1586 9.07189C50.9357 9.07189 51.3243 8.87189 51.6957 8.5976L52.2386 9.30617C51.6786 9.73474 51.09 9.94617 50.1528 9.94617C48.1014 9.94617 47.7014 8.7976 47.7014 7.39189M52.8157 4.94617H53.69L53.8786 3.63189L54.6728 3.46617V4.94617H55.9243V5.87189H54.6728V8.28903C54.6728 8.70046 54.7243 8.94617 55.3586 8.94617H55.9243V9.84903C55.7871 9.86046 55.33 9.86046 55.1643 9.86046C53.9471 9.86046 53.6614 9.42046 53.6614 8.44332V5.8776H52.8214V4.95189L52.8157 4.94617ZM56.8671 10.5405C57.3586 10.289 57.4614 10.1919 57.4614 9.84903H56.8671V8.53474H58.1014V9.48903C58.1014 10.3976 57.9643 10.689 57.13 11.0719L56.8671 10.5347V10.5405ZM66.5928 6.62046C66.5928 5.14046 65.9357 4.28331 64.3071 4.28331C62.6786 4.28331 62.0328 5.14046 62.0328 6.62046C62.0328 8.10046 62.69 8.96903 64.3071 8.96903C65.9243 8.96903 66.5928 8.11189 66.5928 6.62046ZM60.9643 6.60332C60.9643 4.22046 62.2328 3.26046 64.3071 3.26046C66.3814 3.26046 67.6614 4.22046 67.6614 6.60332C67.6614 8.98617 66.3814 9.9576 64.3071 9.9576C62.2328 9.9576 60.9643 8.99189 60.9643 6.60332ZM68.5986 7.6776V4.94617H69.6157V7.70617C69.6157 8.44331 69.6214 9.00331 70.81 9.00331C71.9986 9.00331 72.0043 8.44332 72.0043 7.68903V4.94617H72.9986V7.66046C72.9986 9.19189 72.69 9.93474 70.81 9.93474C68.93 9.93474 68.5986 9.1976 68.5986 7.67189M74.0557 5.00903L74.8557 4.95189L74.9586 5.51189C75.1586 5.18046 75.7586 4.9176 76.5871 4.90046V5.92332C75.4157 5.93474 75.0843 6.48331 75.0843 7.33474V9.85474H74.0614V5.01474L74.0557 5.00903ZM82.4443 6.67189C83.3357 6.67189 83.7757 6.34617 83.7757 5.48331C83.7757 4.62046 83.3586 4.32903 82.4271 4.32903H80.5014V6.6776H82.4443V6.67189ZM79.4671 3.36331H82.4443C84.1986 3.36331 84.8328 4.10046 84.8328 5.43189C84.8328 6.76331 84.2157 7.6376 82.3986 7.6376H80.4957V9.84903H79.4614V3.36331H79.4671ZM88.7414 7.74046V7.48903H88.5586C86.6329 7.48903 86.2671 7.70617 86.2671 8.36332C86.2671 8.82046 86.4786 9.06617 87.2557 9.06617C88.3071 9.06617 88.7471 8.66617 88.7471 7.74046M85.3071 8.44332C85.3071 7.04903 86.0957 6.64903 88.5071 6.64903H88.7471C88.73 6.06617 88.5757 5.79189 87.5986 5.79189C86.9928 5.79189 86.49 6.02046 86.1814 6.20331L85.65 5.40332C85.9814 5.17474 86.7871 4.8376 87.7071 4.8376C89.41 4.8376 89.73 5.40331 89.73 6.7976V8.44332C89.73 8.88903 89.7643 8.9576 90.1928 8.9576V9.84331C90.1243 9.86046 89.9929 9.86046 89.77 9.86046C89.2729 9.86046 89.0328 9.76332 88.9071 9.35189C88.6271 9.72903 88.09 9.93474 87.0843 9.93474C85.6386 9.93474 85.3071 9.27189 85.3071 8.4376M90.7871 9.34046L91.3128 8.55189C91.8557 8.90046 92.5014 9.04903 93.0386 9.04903C93.8271 9.04903 94.1243 8.93474 94.1243 8.44332C94.1243 8.04331 93.85 7.96332 93.05 7.83189C91.8786 7.64903 91.0614 7.46046 91.0614 6.28331C91.0614 5.35189 91.5928 4.82617 93.05 4.82617C93.81 4.82617 94.49 4.98617 94.9757 5.26617L94.4957 6.10617C94.1357 5.91189 93.6214 5.77474 93.0786 5.77474C92.2729 5.77474 92.0729 5.9576 92.0729 6.28331C92.0729 6.6776 92.3357 6.77474 93.0786 6.89474C94.2957 7.09474 95.1186 7.24331 95.1186 8.39189C95.1186 9.54046 94.5071 9.93474 92.9871 9.93474C92.2443 9.93474 91.4614 9.78617 90.7986 9.34046M95.6043 9.34046L96.13 8.55189C96.6729 8.90046 97.3186 9.04903 97.8557 9.04903C98.6443 9.04903 98.9414 8.93474 98.9414 8.44332C98.9414 8.04331 98.6671 7.96332 97.8671 7.83189C96.6957 7.64903 95.8786 7.46046 95.8786 6.28331C95.8786 5.35189 96.41 4.82617 97.8671 4.82617C98.6271 4.82617 99.3071 4.98617 99.7929 5.26617L99.3128 6.10617C98.9528 5.91189 98.4386 5.77474 97.8957 5.77474C97.09 5.77474 96.89 5.9576 96.89 6.28331C96.89 6.6776 97.1529 6.77474 97.8957 6.89474C99.1129 7.09474 99.9357 7.24331 99.9357 8.39189C99.9357 9.54046 99.3243 9.93474 97.8043 9.93474C97.0614 9.93474 96.2786 9.78617 95.6157 9.34046M100.793 9.84903H101.799V4.94617H100.793V9.84903ZM100.781 4.40903H101.804V3.28903H100.781V4.40903ZM106.61 7.41474C106.61 6.3976 106.25 5.81474 105.176 5.81474C104.101 5.81474 103.741 6.3976 103.741 7.41474C103.741 8.43189 104.096 9.02617 105.176 9.02617C106.256 9.02617 106.61 8.42617 106.61 7.41474ZM102.713 7.38617C102.713 5.72331 103.404 4.83189 105.17 4.83189C106.936 4.83189 107.627 5.72331 107.627 7.38617C107.627 9.04903 106.936 9.94046 105.17 9.94046C103.404 9.94046 102.713 9.04903 102.713 7.38617ZM108.553 5.00903L109.353 4.95189L109.439 5.38046C109.673 5.08903 110.147 4.8376 111.233 4.8376C112.753 4.8376 112.993 5.66046 112.993 6.8776V9.85474H111.981V7.0776C111.981 6.3576 111.913 5.84903 110.896 5.84903C109.776 5.84903 109.581 6.39189 109.581 7.16332V9.85474H108.559V5.01474L108.553 5.00903ZM115.29 8.53474H114.056V9.84903H115.29V8.53474ZM115.587 4.15189C115.821 4.15189 115.901 4.10046 115.901 3.89474C115.901 3.68903 115.821 3.6376 115.587 3.6376H115.13V4.15189H115.593H115.587ZM115.536 4.47189H115.124V5.0776H114.753V3.31189H115.599C116.176 3.31189 116.279 3.54617 116.279 3.88331C116.279 4.13474 116.216 4.34617 115.907 4.4376L116.261 5.0776H115.861L115.53 4.47189H115.536ZM116.679 4.19189C116.679 3.48903 116.336 2.92332 115.473 2.92332C114.61 2.92332 114.267 3.48331 114.267 4.19189C114.267 4.90046 114.604 5.46046 115.473 5.46046C116.341 5.46046 116.679 4.90046 116.679 4.19189ZM114.033 4.19189C114.033 3.35189 114.513 2.70617 115.473 2.70617C116.433 2.70617 116.913 3.35189 116.913 4.19189C116.913 5.03189 116.433 5.6776 115.473 5.6776C114.513 5.6776 114.033 5.03189 114.033 4.19189Z" fill="white"/>
</svg>
